inDegrees=no
num_controls=7
num_derivatives=13
num_iterations=107
num_multipliers=7
num_parameters=0
num_slacks=7
num_states=26
objective=0.444837
objective_accelerations=0.058015
objective_balance=0.003484
objective_effort=0.023313
objective_height=0.354533
objective_ligament=0.005491
solver_duration=1560.423951
status=Solve_Succeeded
success=true
DataType=double
version=3
OpenSimVersion=4.5
endheader
time	/jointset/ground_pelvis/pelvis_tilt/value	/jointset/ground_pelvis/pelvis_tx/value	/jointset/ground_pelvis/pelvis_ty/value	/jointset/hip_l/hip_flexion_l/value	/jointset/hip_l/hip_adduction_l/value	/jointset/hip_l/hip_rotation_l/value	/jointset/back/lumbar_extension/value	/jointset/patellofemoral_l/patellar_flexion_l/value	/jointset/knee_l/knee_flexion_l/value	/jointset/knee_l/knee_adduction_l/value	/jointset/knee_l/knee_rotation_l/value	/jointset/ankle_l/ankle_angle_l/value	/jointset/subtalar_l/subtalar_angle_l/value	/jointset/ground_pelvis/pelvis_tilt/speed	/jointset/ground_pelvis/pelvis_tx/speed	/jointset/ground_pelvis/pelvis_ty/speed	/jointset/hip_l/hip_flexion_l/speed	/jointset/hip_l/hip_adduction_l/speed	/jointset/hip_l/hip_rotation_l/speed	/jointset/back/lumbar_extension/speed	/jointset/patellofemoral_l/patellar_flexion_l/speed	/jointset/knee_l/knee_flexion_l/speed	/jointset/knee_l/knee_adduction_l/speed	/jointset/knee_l/knee_rotation_l/speed	/jointset/ankle_l/ankle_angle_l/speed	/jointset/subtalar_l/subtalar_angle_l/speed	/forceset/tau_hip_flexion_l	/forceset/tau_hip_adduction_l	/forceset/tau_hip_rotation_l	/forceset/tau_knee_flexion_l	/forceset/tau_ankle_angle_l	/forceset/tau_subtalar_angle_l	/forceset/tau_lumbar_extension	lambda_cid13_p0	lambda_cid13_p1	lambda_cid13_p2	lambda_cid13_p3	lambda_cid13_p4	lambda_cid13_p5	lambda_cid14_p0	/jointset/ground_pelvis/pelvis_tilt/accel	/jointset/ground_pelvis/pelvis_tx/accel	/jointset/ground_pelvis/pelvis_ty/accel	/jointset/hip_l/hip_flexion_l/accel	/jointset/hip_l/hip_adduction_l/accel	/jointset/hip_l/hip_rotation_l/accel	/jointset/back/lumbar_extension/accel	/jointset/patellofemoral_l/patellar_flexion_l/accel	/jointset/knee_l/knee_flexion_l/accel	/jointset/knee_l/knee_adduction_l/accel	/jointset/knee_l/knee_rotation_l/accel	/jointset/ankle_l/ankle_angle_l/accel	/jointset/subtalar_l/subtalar_angle_l/accel	gamma_cid13_p0	gamma_cid13_p1	gamma_cid13_p2	gamma_cid13_p3	gamma_cid13_p4	gamma_cid13_p5	gamma_cid14_p0
0.5	-0.3469981503784277	-0.03984348116876979	0.7577484407542215	1.112835134305922	-0.4373024659845832	-0.2197367500315885	-0.2543130170983857	0.8132029695333196	0.8132029695331181	-0.1277193772710816	-0.1586033452089258	0.1076982719870985	-0.03324631744205902	-0.7865540773424037	-0.2189391450138091	-0.5408143353387148	2.514016055761002	-0.2052387093017914	0.7521649282344839	-0.1159701186991968	2.005101085456559	2.005101085456567	0.1311851430830711	-0.08919985675931194	0.4518399534775787	-0.004407576527023157	-0.1727526471938363	0.0276646195436378	-0.01102817897506319	-0.2161418118218087	0.06778748734693191	0.03876366717133706	0.169595450030427	-11.05489641545254	-17.87092725520534	5.907363736875358	-6.162516523336263	-521.696878670943	-56.78021961640498	-24.85806694315196	0.8202993093454388	0.607650467541993	-0.4703465851852731	-1.363807359246294	0.7527894156582062	-0.2094536963252994	1.080553905628695	-1.276241644800268	-1.276241644800256	0.09635413348498696	0.1812667024392335	-0.5279289611400749	0.5465949986987436	-5.65996849245785e-07	-4.564465757478872e-07	2.835810366212371e-06	1.468326814009865e-07	-6.490344972370758e-07	6.153047862587032e-08	-4.67127963520231e-07
0.51	-0.354820736241949	-0.04200221535745699	0.7523179850413882	1.137902129284299	-0.4393183776909144	-0.212224377717708	-0.2554198869617642	0.8331870002301455	0.8331870002299493	-0.1264070985938064	-0.1594858000178217	0.1121890505001026	-0.03326501310732383	-0.7778481947285767	-0.2127881877216594	-0.5451592714998763	2.4990334997299	-0.1979274262996066	0.7502083667530498	-0.105442340334838	1.991432106780613	1.991432106780559	0.1312641004545165	-0.08728100255189324	0.4462404441720628	0.0006569012496462322	-0.1783935403966498	0.02839451555896903	-0.01111000569812628	-0.218829460258771	0.06724321417308395	0.0391437318400147	0.1739023210055069	-11.43400110691787	-17.93906767914237	5.883338629141452	-6.07734666552274	-525.4198754466524	-56.404240807162	-23.93370906764346	0.9128984903312832	0.6217755399316343	-0.3990639846269275	-1.617977366595311	0.7224089553903569	-0.2043364714154457	1.03311684811648	-1.453075214116407	-1.453075214125689	-0.03726804041907104	0.1992865366307519	-0.5872515876561305	0.4843747458603573	-5.526914352116356e-07	-3.591732412700213e-07	2.876765422797549e-06	1.691831037330036e-07	-6.257135982020545e-07	1.382696131260875e-07	-4.601094407908694e-07
0.52	-0.3625528301287452	-0.04409884853724667	0.7468475805963343	1.162808799174055	-0.4412607543246451	-0.2047346868381147	-0.2564226336322437	0.8530261712931876	0.8530261712929953	-0.125094217258697	-0.1603486479332934	0.116621575985572	-0.03323346387908007	-0.7684556819975537	-0.2065189432343031	-0.5488040817828472	2.481951038036671	-0.1905316947817524	0.7476286413770967	-0.09514548011939945	1.976129158699678	1.976129158699562	0.1313056746502266	-0.08527847807497232	0.4401893479705957	0.005641402174688726	-0.1840344335994685	0.02912441157429991	-0.0111918324212122	-0.2215171086957316	0.06669894099923679	0.03952379650869293	0.1782091919805817	-11.81659657615141	-18.0074101352204	5.86027644961577	-6.025056545095598	-529.2228270108297	-56.08898556457581	-23.01075050841796	0.9576253327846598	0.6313079065833187	-0.3303214095471316	-1.783788491671706	0.7696791187920872	-0.3340864752291117	1.034370275844653	-1.603035525798311	-1.603035525798309	0.08887749833790276	0.1980007563396744	-0.618246340330315	0.5305996283733586	-5.381982504175626e-07	-2.623370608485761e-07	2.913850758461558e-06	1.934987257360012e-07	-6.048071327196304e-07	2.156000432694646e-07	-4.519046730041186e-07
0.53	-0.3701877595755306	-0.04613227651523192	0.7413442468718752	1.187534497822117	-0.4431287545604681	-0.1972735411733588	-0.2573236032256386	0.8727043427402265	0.8727043427403055	-0.1237812193360328	-0.161190868043995	0.1209914317295589	-0.03315243097544279	-0.758421788770108	-0.2001539505965397	-0.5517419607982094	2.462850598402646	-0.1830598912269687	0.7445006676158038	-0.08510360902696823	1.95924576832519	1.959245768325144	0.1312837621901872	-0.08315794557263168	0.4337131375896565	0.01054832074460276	-0.1895290984455735	0.02962054492805651	-0.01121708085366111	-0.2243004374943316	0.06622334819480181	0.03976491935289005	0.1823585332102655	-12.1800087768503	-18.01421083286986	5.822194466645843	-5.900366191007617	-532.987146534987	-55.70725555282846	-22.09091504048054	1.042463437807954	0.6410414613790586	-0.2575345661110379	-2.02396832937055	0.7368457670512958	-0.3175109984391377	0.9808199558580726	-1.769805631670552	-1.769805631660141	-0.04918695106117314	0.2208097454574796	-0.6725900773720201	0.4679006436862489	-5.217555225791556e-07	-1.675254912474567e-07	2.939994350761183e-06	2.182624984828483e-07	-5.844224723923725e-07	2.916462859293017e-07	-4.419346917447976e-07
0.54	-0.3777191116660237	-0.0481016652630383	0.7358151316735462	1.212059032747818	-0.4449218538020969	-0.1898467468805886	-0.2581258092221256	0.8922059173158404	0.8922059173161923	-0.1224687328045462	-0.1620115367800187	0.1252944690316572	-0.03302289635162918	-0.7477402107393266	-0.1937110971985272	-0.5539603765567781	2.441718293564516	-0.1755514959429937	0.7407583669801205	-0.07539276073790897	1.940809784414838	1.940809784414862	0.1312033964146958	-0.08096820313924238	0.4268256595928652	0.01534174620994991	-0.1950237632916747	0.03011667828181273	-0.01124232928610302	-0.2270837662929318	0.06574775539036642	0.04000604219708639	0.1865078744399533	-12.54699588708013	-18.02117509927205	5.785042232433207	-5.808270789991056	-536.8326877325827	-55.38558419891981	-21.17820540756307	1.087162293451811	0.6468800586331335	-0.1864287581884836	-2.190161532492405	0.7769974646303526	-0.4569518501071911	0.9681657151702657	-1.913554232971226	-1.913554232971234	0.07718683524752111	0.2118427425494029	-0.7004998635007574	0.5079010074599748	-5.031558535002091e-07	-7.495391659648498e-08	2.954032184444894e-06	2.435220975845926e-07	-5.646151284070008e-07	3.662717254158606e-07	-4.300117083456118e-07
0.55	-0.3851406074332243	-0.05000632560822798	0.7302674414112903	1.236362439763925	-0.4466396431050957	-0.1824601236888586	-0.2588326038160303	0.9115155253208962	0.9115155253211445	-0.121157384599904	-0.1628097670041247	0.1295266486797002	-0.03284591802417591	-0.7364569382189521	-0.18721594330608	-0.5554550036440804	2.418637689535924	-0.168003508551243	0.736467609782422	-0.06603830194216304	1.920864704806347	1.920864704806495	0.1310553027806315	-0.07867088381767239	0.4195467397804491	0.02003312093256809	-0.2003674566012937	0.03033852705831917	-0.01119943648682711	-0.2299041072965022	0.06520316363955335	0.04018546893130324	0.1904902079935174	-12.93509970438043	-17.99444768184404	5.73886194144932	-5.610820776701351	-540.5970734194782	-55.06931653695481	-20.27681207170199	1.164140856796682	0.6516387945201959	-0.1126896086837718	-2.415904117162639	0.7437470185707356	-0.430296369300094	0.9082643769320613	-2.071966891625442	-2.071966891606846	-0.06236960385542257	0.2403164781810954	-0.7510884799796302	0.4462935144630733	-4.792021052258666e-07	1.171534976855025e-08	2.937328547291816e-06	2.637803258895681e-07	-5.389568667900137e-07	4.34866590929873e-07	-4.144322519929888e-07
0.5600000000000001	-0.3924462242501267	-0.05184587326649924	0.7247084628932247	1.260425261883924	-0.4482819430057517	-0.1751194398120466	-0.259448018138946	0.9306182861164997	0.9306182861166452	-0.1198478297598282	-0.1635846960447697	0.1336841390416454	-0.03262271838753635	-0.724564420679923	-0.1806885598148438	-0.5562180277186839	2.393601314342532	-0.1604536154745598	0.7315705039967678	-0.05711670654020561	1.899440342524361	1.899440342524632	0.130844723501687	-0.07630796644729078	0.4118878023733292	0.0245860080471998	-0.2057111499109084	0.03056037583482443	-0.01115654368756193	-0.232724448300072	0.06465857188873958	0.04036489566551848	0.1944725415470862	-13.32587656375905	-17.96795724412438	5.693526612132433	-5.450221425349396	-544.430717476419	-54.80920642165582	-19.38891216347536	1.209011297182722	0.65332597839094	-0.04010815564868259	-2.581315765452254	0.7773786016168718	-0.5782215676982856	0.8815930364125732	-2.209410767670315	-2.209410767670309	0.0646897062715015	0.2249623523117243	-0.7765033824415202	0.4802034858626755	-4.488234619170494e-07	9.130184619046199e-08	2.883735145134594e-06	2.78036909238421e-07	-5.062775040150885e-07	4.962247676768298e-07	-3.944650280962416e-07
0.5700000000000001	-0.3996301179323318	-0.05362008343057437	0.7191454991209094	1.284228386415508	-0.4498486550466992	-0.1678306047981725	-0.2599763902085603	0.9494995909500485	0.9494995909498891	-0.1185405572734569	-0.1643355603795494	0.1377632117503431	-0.0323545623436949	-0.7121217612022926	-0.1741568481785884	-0.5562520376385659	2.366715571385518	-0.1528924801941069	0.7260966955395424	-0.04864643229221194	1.876585666564644	1.876585666564775	0.1305972504771902	-0.07386147287028993	0.4038660168726541	0.02901780682691783	-0.2108473657095218	0.0306604676630029	-0.01104255468189396	-0.2355732617331032	0.06409799566684571	0.04036475682106229	0.198239120369584	-13.71970028046542	-17.85560336649129	5.626111104653978	-5.172059497634173	-548.1227690223482	-54.43846101047814	-18.51621380586239	1.275711726496478	0.652644699684497	0.03325839726230127	-2.788482155452929	0.7445423432140736	-0.5472515082695595	0.8164358825899343	-2.3586630191614	-2.35866301918243	-0.07125447898446259	0.255582534917988	-0.8240858623469056	0.420202849825173	-4.158643300456236e-07	1.735769510579434e-07	2.822336903486278e-06	2.91686697254335e-07	-4.720283916177873e-07	5.520990318315515e-07	-3.7222616701618e-07
